<?xml version="1.0" encoding="UTF-8"?>
<svg width="24px" height="15px" viewBox="0 0 24 15" version="1.1" xmlns="http://www.w3.org/2000/svg" xmlns:xlink="http://www.w3.org/1999/xlink">
    <!-- Generator: sketchtool 47.1 (45422) - http://www.bohemiancoding.com/sketch -->
    <title>A98CE48C-AFF5-46B1-833E-E6EE7D891341</title>
    <desc>Created with sketchtool.</desc>
    <defs></defs>
    <g id="Symbols" stroke="none" stroke-width="1" fill="none" fill-rule="evenodd">
        <g id="footer-/-bottom" transform="translate(-439.000000, -78.000000)" fill-rule="nonzero" fill="#6B788E">
            <g id="footer" transform="translate(260.000000, 0.000000)">
                <g id="top" transform="translate(0.000000, 60.000000)">
                    <g id="Follow-us">
                        <path d="M200.610507,20.121965 L194.61453,20.121965 L194.61453,18.6220837 L200.611007,18.6220837 L200.611007,20.121965 L200.610507,20.121965 L200.610507,20.121965 Z M190.622869,26.2724868 C191.009756,26.8759691 191.203089,27.608709 191.203089,28.4689696 C191.203089,29.3585891 190.98511,30.1566582 190.541641,30.861608 C190.259515,31.3281008 189.909236,31.7221488 189.488355,32.0393818 C189.014343,32.406256 188.45315,32.6578237 187.808004,32.7922359 C187.160799,32.9268722 186.460296,32.9948908 185.705715,32.9948908 L179,32.9948908 L179,18 L186.190854,18 C188.003395,18.0296951 189.288402,18.5585475 190.047211,19.5971466 C190.50253,20.234134 190.728131,20.9984739 190.728131,21.8869168 C190.728131,22.8036541 190.499804,23.5371784 190.040034,24.0944933 C189.784279,24.4069639 189.40646,24.6911962 188.906299,24.9477504 C189.663884,25.2270521 190.238707,25.6668754 190.622869,26.2724868 Z M182.433918,23.9117285 L185.584653,23.9117285 C186.232136,23.9117285 186.755552,23.7877936 187.158685,23.5400359 C187.56154,23.2926703 187.76255,22.8529592 187.76255,22.2216307 C187.76255,21.5241327 187.496391,21.0611697 186.962793,20.8383446 C186.504136,20.683538 185.917296,20.6038096 185.205221,20.6038096 L182.433918,20.6038096 L182.433918,23.9117285 Z M188.065929,28.2547729 C188.065929,27.4758655 187.749809,26.9373762 187.11885,26.6484376 C186.766012,26.4842182 186.268187,26.4002876 185.629884,26.3942926 L182.433918,26.3942926 L182.433918,30.3903528 L185.580425,30.3903528 C186.22685,30.3903528 186.727178,30.3051336 187.088251,30.1273553 C187.739406,29.8004854 188.065929,29.1784017 188.065929,28.2547729 Z M202.835193,25.8153507 C202.90763,26.3059357 202.940399,27.017721 202.927102,27.9480732 L195.161647,27.9480732 C195.204486,29.0275171 195.574516,29.7823882 196.276299,30.2143675 C196.699516,30.485265 197.21264,30.6175481 197.813501,30.6175481 C198.447075,30.6175481 198.963481,30.4562423 199.360995,30.124666 C199.577583,29.9489048 199.768634,29.7008108 199.933815,29.38778 L202.780114,29.38778 C202.705563,30.0253275 202.36285,30.6719517 201.746968,31.3290533 C200.792768,32.3734794 199.454518,32.8971772 197.735834,32.8971772 C196.316023,32.8971772 195.06473,32.455505 193.978619,31.5753543 C192.896125,30.692122 192.352457,29.2596989 192.352457,27.2726504 C192.352457,25.4093127 192.840545,23.9831088 193.820003,22.9903969 C194.803078,21.9958361 196.071784,21.5008249 197.635635,21.5008249 C198.562573,21.5008249 199.398159,21.6676776 200.143616,22.0031198 C200.886736,22.3388982 201.500893,22.8673585 201.984586,23.5936551 C202.422324,24.2332757 202.703838,24.9728511 202.835193,25.8153507 Z M200.033569,26.0951568 C199.981383,25.3487459 199.733918,24.7838112 199.288335,24.3977192 C198.846424,24.0105627 198.294356,23.8162001 197.635635,23.8162001 C196.918719,23.8162001 196.365148,24.0239535 195.971807,24.4322888 C195.575796,24.8397836 195.329387,25.3937928 195.228409,26.0952128 L200.033569,26.0952128 L200.033569,26.0951568 Z" id="Behance"></path>
                    </g>
                </g>
            </g>
        </g>
    </g>
</svg>