<?xml version="1.0" encoding="UTF-8"?>
<svg width="21px" height="20px" viewBox="0 0 21 20" version="1.1" xmlns="http://www.w3.org/2000/svg" xmlns:xlink="http://www.w3.org/1999/xlink">
    <!-- Generator: sketchtool 47.1 (45422) - http://www.bohemiancoding.com/sketch -->
    <title>5930DBE9-3B58-49A2-8698-F7C80D694DAA</title>
    <desc>Created with sketchtool.</desc>
    <defs></defs>
    <g id="Symbols" stroke="none" stroke-width="1" fill="none" fill-rule="evenodd">
        <g id="footer-/-bottom" transform="translate(-385.000000, -74.000000)" fill-rule="nonzero" fill="#6B788E">
            <g id="footer" transform="translate(260.000000, 0.000000)">
                <g id="top" transform="translate(0.000000, 60.000000)">
                    <g id="Follow-us">
                        <path d="M145.368653,26.0173569 L145.368653,33.600999 L141.002991,33.600999 L141.002991,26.5252636 C141.002991,24.7477811 140.371545,23.5347189 138.79132,23.5347189 C137.585019,23.5347189 136.867148,24.3522339 136.551331,25.1430422 C136.436161,25.425753 136.406516,25.8192495 136.406516,26.2149874 L136.406516,33.600999 L132.039386,33.600999 C132.039386,33.600999 132.098202,21.6170256 132.039386,20.3753966 L136.40609,20.3753966 L136.40609,22.2500728 C136.397234,22.2640939 136.385727,22.2792118 136.377392,22.2928037 L136.40609,22.2928037 L136.40609,22.2500728 C136.986249,21.3501958 138.022353,20.0646913 140.341474,20.0646913 C143.214709,20.0646436 145.368653,21.9549623 145.368653,26.0173569 Z M127.471182,14 C125.977193,14 125,14.986865 125,16.284626 C125,17.5541064 125.948921,18.5709212 127.413218,18.5709212 L127.44239,18.5709212 C128.965314,18.5709212 129.912435,17.5542972 129.912435,16.284626 C129.883737,14.986865 128.965314,14 127.471182,14 Z M125.259369,33.600999 L129.624842,33.600999 L129.624842,20.3753966 L125.259369,20.3753966 L125.259369,33.600999 Z" id="LinkedIn"></path>
                    </g>
                </g>
            </g>
        </g>
    </g>
</svg>