<svg xmlns="http://www.w3.org/2000/svg" xmlns:xlink="http://www.w3.org/1999/xlink" width="22" height="18" version="1.1" viewBox="0 0 22 18"><title>AD375AC3-95BF-4FCD-8915-C16F66AAD6F5</title><desc>Created with sketchtool.</desc><g id="Symbols" fill="none" fill-rule="evenodd" stroke="none" stroke-width="1"><g id="footer-/-bottom" fill="#6B788E" fill-rule="nonzero" transform="translate(-330.000000, -77.000000)"><g id="footer" transform="translate(260.000000, 0.000000)"><g id="top" transform="translate(0.000000, 60.000000)"><g id="Follow-us"><path id="Shape" d="M91.9552352,19.1249505 C91.1471593,19.4855457 90.2801054,19.7300973 89.3691052,19.8392766 C90.2992983,19.2783146 91.0113379,18.38855 91.3488105,17.3315843 C90.4762679,17.8510713 89.5131418,18.2282855 88.4869122,18.4327709 C87.6651322,17.5499069 86.4962292,17 85.1997203,17 C82.712389,17 80.6956251,19.0310173 80.6956251,21.5345548 C80.6956251,21.8896225 80.7354101,22.2364168 80.8122535,22.5680372 C77.0695973,22.3787256 73.7508715,20.5729314 71.5296941,17.8289608 C71.141423,18.4976932 70.9205429,19.2769056 70.9205429,20.1086844 C70.9205429,21.6823913 71.716278,23.0709413 72.9236026,23.8833193 C72.1854822,23.8584632 71.4912723,23.6539777 70.8835203,23.3140839 L70.8835203,23.3707329 C70.8835203,25.5675423 72.4365687,27.4009746 74.495844,27.818255 C74.1185506,27.9204977 73.720701,27.9771466 73.3091114,27.9771466 C73.0182758,27.9771466 72.7370187,27.9481357 72.4612505,27.8928596 C73.0347064,29.6959081 74.6975311,31.0070716 76.667658,31.0430192 C75.1269504,32.2588766 73.1842677,32.9814761 71.0742298,32.9814761 C70.7106763,32.9814761 70.3525758,32.9593656 70,32.9192995 C71.9934453,34.2083887 74.3600585,34.9599991 76.9036413,34.9599991 C85.1888144,34.9599991 89.7176272,28.0490056 89.7176272,22.0554508 L89.7025239,21.4682596 C90.5874075,20.8326568 91.3529361,20.0340797 91.9552352,19.1249505 Z"/></g></g></g></g></g></svg>